<svg width="100" height="100" viewBox="0 0 100 100" fill="none" xmlns="http://www.w3.org/2000/svg">
<path d="M91.6663 50H66.6663L58.333 62.5H41.6663L33.333 50H8.33301" stroke="#111111" stroke-width="3.125" stroke-linecap="round" stroke-linejoin="round"/>
<path d="M22.708 21.291L8.33301 49.9994V74.9994C8.33301 77.2095 9.21098 79.3291 10.7738 80.8919C12.3366 82.4547 14.4562 83.3327 16.6663 83.3327H83.333C85.5431 83.3327 87.6628 82.4547 89.2256 80.8919C90.7884 79.3291 91.6663 77.2095 91.6663 74.9994V49.9994L77.2913 21.291C76.6014 19.9026 75.5379 18.7342 74.2203 17.9172C72.9027 17.1001 71.3834 16.6668 69.833 16.666H30.1663C28.616 16.6668 27.0966 17.1001 25.779 17.9172C24.4614 18.7342 23.3979 19.9026 22.708 21.291Z" stroke="#111111" stroke-width="3.125" stroke-linecap="round" stroke-linejoin="round"/>
</svg>
