<svg width="162" height="160" viewBox="0 0 162 160" fill="none" xmlns="http://www.w3.org/2000/svg">
<path d="M136.108 78.0359V41.5713C136.108 41.5666 136.104 41.5631 136.104 41.5584C136.102 41.3056 136.054 41.0494 135.944 40.8037C135.907 40.7206 135.839 40.6656 135.792 40.5913C135.748 40.5197 135.707 40.4613 135.653 40.3966C135.432 40.1278 135.166 39.9137 134.847 39.8003C134.838 39.7969 134.834 39.7862 134.824 39.7831L108.998 31.0525C108.995 31.0516 108.992 31.0509 108.99 31.05L73.6431 19.1003C73.2512 18.9666 72.825 18.9666 72.4331 19.1003L11.2518 39.8175C11.1493 39.8525 11.0746 39.9241 10.9825 39.9738C10.9293 40.0016 10.8671 39.9987 10.8162 40.0319C10.7843 40.0528 10.7712 40.0912 10.7409 40.1141C10.5562 40.2525 10.4078 40.4184 10.2868 40.6097C10.2578 40.6556 10.215 40.6888 10.19 40.7369C10.0606 40.9847 9.9934 41.2575 9.98371 41.5422C9.98309 41.5606 9.97027 41.5762 9.97027 41.595L9.53715 108.6C9.53246 109.33 9.94965 109.999 10.6087 110.314L73.7418 140.543C74 140.668 74.2787 140.728 74.5578 140.728L74.559 140.727L74.5603 140.728C74.8437 140.728 75.134 140.663 75.4062 140.527L109.942 123.175C114.411 126.662 120.013 128.761 126.108 128.761C140.639 128.761 152.462 116.938 152.462 102.407C152.462 91.4153 145.692 81.9838 136.108 78.0359ZM126.108 76.0522C114.053 76.0522 103.887 84.1981 100.763 95.2669L84.7565 102.45C83.8046 102.877 83.3784 103.994 83.8068 104.944C84.1203 105.645 84.8093 106.06 85.5284 106.06C85.7887 106.06 86.0515 106.007 86.3006 105.894L99.8856 99.7969C99.8006 100.656 99.7534 101.526 99.7534 102.407C99.7534 104.232 99.9409 106.013 100.296 107.735L87.5568 113.819C86.6165 114.269 86.2178 115.396 86.6671 116.336C86.99 117.014 87.6675 117.41 88.3728 117.41C88.6446 117.41 88.9212 117.353 89.184 117.226L101.37 111.405C102.609 114.801 104.519 117.869 106.952 120.451L76.4643 135.768L76.8715 69.195L132.333 44.4781V76.8263C130.333 76.3391 128.255 76.0522 126.108 76.0522ZM36.6246 53.9928L49.0218 59.1691V78.5253L42.9075 72.4822C42.3612 71.9428 41.5431 71.7884 40.8378 72.0903L36.6246 73.8928V53.9928ZM39.6268 51.1544L91.8297 29.2344L103.06 33.0309L50.7303 55.7906L39.6268 51.1544ZM108.387 34.8316L129.041 41.8138L74.969 65.9116L55.56 57.8072L108.387 34.8316ZM73.039 22.8825L86.4281 27.4087L34.7362 49.1125L17.2009 41.7903L73.039 22.8825ZM13.7271 44.4316L32.8493 52.4162V76.7553C32.8493 77.3891 33.1675 77.9816 33.6975 78.3319C34.2253 78.68 34.8981 78.7397 35.479 78.4909L41.1556 76.0619L49.5815 84.3913C49.9434 84.7463 50.4228 84.9353 50.909 84.9353C51.1556 84.9353 51.4021 84.8894 51.6375 84.79C52.3403 84.4972 52.7968 83.8081 52.7968 83.0475V60.7459L73.0947 69.2216L72.689 135.851L13.3215 107.427L13.7271 44.4316ZM126.108 124.986C113.658 124.986 103.528 114.857 103.528 102.407C103.528 89.9569 113.658 79.8275 126.108 79.8275C138.558 79.8275 148.687 89.9569 148.687 102.407C148.687 114.857 138.558 124.986 126.108 124.986Z" fill="#111111"/>
<path d="M136.541 92.0562L120.754 106.712L118.016 102.842C117.415 101.994 116.235 101.791 115.384 102.391C114.531 102.994 114.331 104.172 114.933 105.023L118.918 110.653C119.233 111.098 119.724 111.383 120.266 111.441C120.331 111.448 120.395 111.45 120.46 111.45C120.934 111.45 121.393 111.273 121.743 110.946L139.109 94.8219C139.875 94.1119 139.918 92.9181 139.208 92.1553C138.498 91.3856 137.3 91.3441 136.541 92.0562Z" fill="#25D366"/>
</svg>
