<svg width="25" height="24" viewBox="0 0 25 24" fill="none" xmlns="http://www.w3.org/2000/svg">
<path fill-rule="evenodd" clip-rule="evenodd" d="M8.13163 1.066C9.30463 1.012 9.67863 1 12.6666 1C15.6546 1 16.0286 1.013 17.2006 1.066C18.3726 1.119 19.1726 1.306 19.8726 1.577C20.6056 1.854 21.2706 2.287 21.8206 2.847C22.3806 3.396 22.8126 4.06 23.0886 4.794C23.3606 5.494 23.5466 6.294 23.6006 7.464C23.6546 8.639 23.6666 9.013 23.6666 12C23.6666 14.988 23.6536 15.362 23.6006 16.535C23.5476 17.705 23.3606 18.505 23.0886 19.205C22.8126 19.9391 22.3799 20.6042 21.8206 21.154C21.2706 21.714 20.6056 22.146 19.8726 22.422C19.1726 22.694 18.3726 22.88 17.2026 22.934C16.0286 22.988 15.6546 23 12.6666 23C9.67863 23 9.30463 22.987 8.13163 22.934C6.96163 22.881 6.16163 22.694 5.46163 22.422C4.72755 22.146 4.06245 21.7133 3.51263 21.154C2.95301 20.6047 2.51994 19.9399 2.24363 19.206C1.97263 18.506 1.78663 17.706 1.73263 16.536C1.67863 15.361 1.66663 14.987 1.66663 12C1.66663 9.012 1.67963 8.638 1.73263 7.466C1.78563 6.294 1.97263 5.494 2.24363 4.794C2.52035 4.06008 2.95374 3.39531 3.51363 2.846C4.06267 2.2865 4.7271 1.85344 5.46063 1.577C6.16063 1.306 6.96163 1.12 8.13163 1.066ZM17.1116 3.046C15.9516 2.993 15.6036 2.982 12.6666 2.982C9.72963 2.982 9.38163 2.993 8.22163 3.046C7.14863 3.095 6.56663 3.274 6.17863 3.425C5.66563 3.625 5.29863 3.862 4.91363 4.247C4.54867 4.60205 4.26781 5.03428 4.09163 5.512C3.94063 5.9 3.76163 6.482 3.71263 7.555C3.65963 8.715 3.64863 9.063 3.64863 12C3.64863 14.937 3.65963 15.285 3.71263 16.445C3.76163 17.518 3.94063 18.1 4.09163 18.488C4.26763 18.965 4.54863 19.398 4.91363 19.753C5.26863 20.118 5.70163 20.399 6.17863 20.575C6.56663 20.726 7.14863 20.905 8.22163 20.954C9.38163 21.007 9.72863 21.018 12.6666 21.018C15.6046 21.018 15.9516 21.007 17.1116 20.954C18.1846 20.905 18.7666 20.726 19.1546 20.575C19.6676 20.375 20.0346 20.138 20.4196 19.753C20.7846 19.398 21.0656 18.965 21.2416 18.488C21.3926 18.1 21.5716 17.518 21.6206 16.445C21.6736 15.285 21.6846 14.937 21.6846 12C21.6846 9.063 21.6736 8.715 21.6206 7.555C21.5716 6.482 21.3926 5.9 21.2416 5.512C21.0416 4.999 20.8046 4.632 20.4196 4.247C20.0646 3.88207 19.6323 3.60121 19.1546 3.425C18.7666 3.274 18.1846 3.095 17.1116 3.046ZM11.2616 15.391C12.0463 15.7176 12.92 15.7617 13.7336 15.5157C14.5471 15.2697 15.25 14.7489 15.7222 14.0422C16.1945 13.3356 16.4067 12.4869 16.3227 11.6411C16.2387 10.7953 15.8636 10.005 15.2616 9.405C14.8779 9.02148 14.4138 8.72781 13.903 8.54515C13.3921 8.36248 12.8471 8.29536 12.3071 8.34862C11.7672 8.40187 11.2458 8.57418 10.7804 8.85313C10.3151 9.13208 9.91737 9.51074 9.61593 9.96185C9.31449 10.413 9.11681 10.9253 9.03714 11.462C8.95747 11.9986 8.99778 12.5463 9.15517 13.0655C9.31255 13.5847 9.58311 14.0626 9.94735 14.4647C10.3116 14.8668 10.7605 15.1832 11.2616 15.391ZM8.66863 8.002C9.19365 7.47697 9.81695 7.0605 10.5029 6.77636C11.1889 6.49222 11.9241 6.34597 12.6666 6.34597C13.4091 6.34597 14.1444 6.49222 14.8303 6.77636C15.5163 7.0605 16.1396 7.47697 16.6646 8.002C17.1897 8.52702 17.6061 9.15032 17.8903 9.8363C18.1744 10.5223 18.3207 11.2575 18.3207 12C18.3207 12.7425 18.1744 13.4777 17.8903 14.1637C17.6061 14.8497 17.1897 15.473 16.6646 15.998C15.6043 17.0583 14.1662 17.654 12.6666 17.654C11.1671 17.654 9.72896 17.0583 8.66863 15.998C7.60829 14.9377 7.0126 13.4995 7.0126 12C7.0126 10.5005 7.60829 9.06234 8.66863 8.002ZM19.5746 7.188C19.7047 7.06527 19.8089 6.91768 19.8809 6.75397C19.953 6.59027 19.9914 6.41377 19.994 6.23493C19.9967 6.05609 19.9633 5.87855 19.8961 5.71281C19.8289 5.54707 19.7291 5.39651 19.6026 5.27004C19.4761 5.14357 19.3256 5.04376 19.1598 4.97652C18.9941 4.90928 18.8165 4.87598 18.6377 4.87858C18.4589 4.88119 18.2824 4.91965 18.1187 4.9917C17.9549 5.06374 17.8074 5.1679 17.6846 5.298C17.4459 5.55103 17.3153 5.88712 17.3203 6.23493C17.3254 6.58274 17.4658 6.91488 17.7118 7.16084C17.9577 7.40681 18.2899 7.54723 18.6377 7.5523C18.9855 7.55737 19.3216 7.42669 19.5746 7.188Z" fill="white"/>
</svg>
