<svg width="18" height="18" viewBox="0 0 18 18" fill="none" xmlns="http://www.w3.org/2000/svg">
<g clip-path="url(#clip0_1841_280)">
<path d="M15.545 7.54545C15.545 12.6364 8.99956 17 8.99956 17C8.99956 17 2.4541 12.6364 2.4541 7.54545C2.4541 5.80949 3.14371 4.14463 4.37122 2.91712C5.59873 1.68961 7.26359 1 8.99956 1C10.7355 1 12.4004 1.68961 13.6279 2.91712C14.8554 4.14463 15.545 5.80949 15.545 7.54545Z" stroke="white" stroke-width="1.45455" stroke-linecap="round" stroke-linejoin="round"/>
<path d="M8.99956 9.72727C10.2045 9.72727 11.1814 8.75044 11.1814 7.54545C11.1814 6.34047 10.2045 5.36364 8.99956 5.36364C7.79457 5.36364 6.81774 6.34047 6.81774 7.54545C6.81774 8.75044 7.79457 9.72727 8.99956 9.72727Z" stroke="white" stroke-width="1.45455" stroke-linecap="round" stroke-linejoin="round"/>
</g>
<defs>
<clipPath id="clip0_1841_280">
<rect width="17.4545" height="17.4545" fill="white" transform="translate(0.272461 0.272705)"/>
</clipPath>
</defs>
</svg>
