<svg width="26" height="26" viewBox="0 0 26 26" fill="none" xmlns="http://www.w3.org/2000/svg">
<path d="M13 22.75C18.3848 22.75 22.75 18.3848 22.75 13C22.75 7.61529 18.3848 3.25 13 3.25C7.61529 3.25 3.25 7.61529 3.25 13C3.25 18.3848 7.61529 22.75 13 22.75Z" stroke="#111111" stroke-width="1.625" stroke-linecap="round" stroke-linejoin="round"/>
<path d="M13 16.25C15.2437 16.25 17.0625 14.4312 17.0625 12.1875C17.0625 9.94378 15.2437 8.125 13 8.125C10.7563 8.125 8.9375 9.94378 8.9375 12.1875C8.9375 14.4312 10.7563 16.25 13 16.25Z" stroke="#111111" stroke-width="1.625" stroke-linecap="round" stroke-linejoin="round"/>
<path d="M6.47961 20.2516C6.93685 19.351 7.57568 18.5549 8.35583 17.9135C9.13598 17.2721 10.0405 16.7992 11.0125 16.5247C11.9845 16.2502 13.0028 16.18 14.0032 16.3185C15.0036 16.4571 15.9645 16.8014 16.8253 17.3297C17.9762 18.0361 18.9089 19.0475 19.5202 20.2516" stroke="#111111" stroke-width="1.625" stroke-linecap="round" stroke-linejoin="round"/>
</svg>
