<svg width="25" height="24" viewBox="0 0 25 24" fill="none" xmlns="http://www.w3.org/2000/svg">
<path d="M24.3096 4.93708C23.4746 5.30708 22.5776 5.55708 21.6346 5.67008C22.6076 5.08787 23.3356 4.17154 23.6826 3.09208C22.7685 3.63507 21.768 4.01727 20.7246 4.22208C20.023 3.47294 19.0937 2.9764 18.081 2.80955C17.0682 2.6427 16.0287 2.81487 15.1239 3.29933C14.219 3.78379 13.4994 4.55344 13.0768 5.48878C12.6542 6.42412 12.5522 7.47283 12.7866 8.47208C10.9343 8.37907 9.12227 7.89763 7.46806 7.05898C5.81386 6.22034 4.35448 5.04324 3.18464 3.60408C2.78464 4.29408 2.55464 5.09408 2.55464 5.94608C2.55419 6.71307 2.74307 7.46832 3.10452 8.14481C3.46596 8.8213 3.9888 9.39812 4.62664 9.82408C3.88691 9.80054 3.16351 9.60066 2.51664 9.24108V9.30108C2.51656 10.3768 2.88867 11.4195 3.56982 12.2521C4.25097 13.0847 5.19921 13.656 6.25364 13.8691C5.56742 14.0548 4.84798 14.0821 4.14964 13.9491C4.44713 14.8747 5.02663 15.6841 5.807 16.264C6.58738 16.8439 7.52955 17.1653 8.50164 17.1831C6.85147 18.4785 4.81352 19.1812 2.71564 19.1781C2.34402 19.1782 1.97271 19.1565 1.60364 19.1131C3.73311 20.4823 6.21198 21.2089 8.74364 21.2061C17.3136 21.2061 21.9986 14.1081 21.9986 7.95208C21.9986 7.75208 21.9936 7.55008 21.9846 7.35008C22.8959 6.69105 23.6825 5.87497 24.3076 4.94008L24.3096 4.93708Z" fill="white"/>
</svg>
