<svg width="24" height="24" viewBox="0 0 24 24" fill="none" xmlns="http://www.w3.org/2000/svg">
<g clip-path="url(#clip0_1014_2090)">
<path d="M7.48268 8.76797C7.65685 8.21547 8.13102 7.5538 8.47435 7.38464C8.62685 7.30964 8.74018 7.29297 9.11018 7.29297C9.54518 7.29297 9.56685 7.29714 9.68018 7.40964C9.75352 7.4888 9.95352 7.91464 10.241 8.60297C10.4844 9.19464 10.6852 9.6988 10.6852 9.72547C10.6852 9.84714 10.441 10.2338 10.1627 10.5605C9.97102 10.783 9.85852 10.9521 9.85852 11.013C9.85852 11.0696 9.99768 11.3305 10.1719 11.588C10.5935 12.2188 11.3719 13.0013 11.9777 13.4021C12.451 13.7155 13.296 14.1246 13.4652 14.1246C13.5919 14.1246 13.8227 13.898 14.2919 13.3063C14.4835 13.0671 14.6535 12.8938 14.7185 12.8805C14.7752 12.863 14.9144 12.8846 15.0269 12.928C15.3535 13.0546 17.0027 13.8588 17.0902 13.9371C17.2594 14.0938 17.121 14.9905 16.8677 15.3555C16.481 15.9221 15.376 16.4046 14.6485 16.3305C14.1185 16.2738 12.8652 15.8605 12.051 15.473C11.0069 14.973 9.90602 14.0588 9.01435 12.9413C8.50518 12.3055 7.99185 11.5313 7.77018 11.0696C7.47018 10.4438 7.36102 9.96047 7.39102 9.40297C7.40435 9.1638 7.44768 8.87714 7.48268 8.76797Z" fill="white"/>
<path fill-rule="evenodd" clip-rule="evenodd" d="M2.50513 9.91657C3.31847 5.7424 6.6468 2.63323 10.9243 2.0499C11.5118 1.96657 13.161 1.99323 13.731 2.08823C14.3268 2.19323 15.1143 2.3974 15.5976 2.5799C18.791 3.76823 21.1501 6.51323 21.8193 9.81573C22.111 11.2566 22.046 12.9449 21.6501 14.3632C20.706 17.7216 17.9643 20.3674 14.5576 21.2116C12.3385 21.7599 10.006 21.5199 7.90513 20.5366L7.39097 20.2932L4.70263 21.1507C3.22763 21.6207 2.00847 21.9949 2.00013 21.9857C1.9918 21.9774 2.37513 20.8066 2.85763 19.3924L3.73263 16.8124L3.3793 16.1124C2.40013 14.1407 2.10013 12.0082 2.5043 9.9149L2.50513 9.91657ZM20.1485 9.57657C19.2918 6.44323 16.5676 4.0549 13.361 3.6199C11.6118 3.3849 9.96263 3.65073 8.4443 4.41657C4.76347 6.27823 3.0093 10.5341 4.33597 14.3807C4.50597 14.8724 4.96263 15.7991 5.24597 16.2249L5.4718 16.5649L4.96763 18.0441C4.79237 18.5465 4.62402 19.0512 4.46263 19.5582C4.46263 19.5799 5.16263 19.3716 6.01597 19.1016C6.54208 18.9307 7.06988 18.7652 7.5993 18.6049C7.61763 18.6049 7.7868 18.6966 7.9743 18.8049C9.99763 20.0107 12.521 20.2716 14.7968 19.5149C16.1089 19.0784 17.2906 18.32 18.2339 17.3089C19.1773 16.2979 19.8521 15.0665 20.1968 13.7274C20.531 12.3621 20.5144 10.9345 20.1485 9.5774V9.57657Z" fill="white"/>
</g>
<defs>
<clipPath id="clip0_1014_2090">
<rect width="20" height="20" fill="white" transform="translate(2 2)"/>
</clipPath>
</defs>
</svg>
